<svg xmlns="http://www.w3.org/2000/svg" width="250" height="250" fill="none" viewBox="0 0 250 250">
<!-- SVG created with Arrow, by QuiverAI (https://quiver.ai) -->
  <path d="m152.4 178.9h-61.08c-3.63 0-4.57-2.84-4.25-5.15 0.36-2.52 2.25-3.86 4.25-3.86h61.08c16.76 0 31.7-14.86 31.7-33.03 0-16.85-12.95-32.05-31.28-32.05h-48.39c-3.49 0-4.71-2.37-4.71-4.81 0-3.25 2.34-5.09 4.71-5.09h48.12c22.44 0 40.18 19.26 40.18 41.8 0 22.1-18.3 42.19-40.33 42.19z" fill="url(#paint0_linear_2149_5282)"/>
  <path d="m141.6 139.6h-64.81c-7.17 0-10.52-5.67-10.52-10.47v-64.7c0-7 5.13-11.94 11.23-11.94h68.67c7.53 0 12.6 2.16 17.63 5.66 3.01 2.16 2.35 6.78-1.03 8.16-2.16 0.9-4.15 0.41-5.35-0.69-3.61-2.91-7.36-3.35-11.11-3.35h-68.45c-1.61 0-2.56 0.97-2.56 2.78v62.48c0 2.06 0.99 2.8 2.77 2.8h63.46c3.68 0 4.53 2.83 4.28 4.9-0.31 2.49-1.93 4.37-4.21 4.37z" fill="url(#paint1_linear_2149_5282)"/>
  <path d="m169.7 77.21c-2.7 0-5.04-2.41-4.7-5.14 0.18-1.37 0.82-2.24 1.64-3.11l6.32-6.68-7.02-8.36c-2.2-2.76-0.4-7.45 3.51-7.21 1.46-0.09 2.62 0.43 3.62 1.73l10.06 10.42c2.21 2.02 1.81 5.91-0.35 7.43l-10.24 10.32c-0.79 0.56-1.76 0.6-2.84 0.6z" fill="url(#paint2_linear_2149_5282)"/>
  <path d="m82.9 189.3c-1.51 0-2.51-0.58-3.26-1.5l-11.14-10.92c-1.9-1.78-1.61-5.4 0.45-6.86l11.32-9.86c1.6-1.84 4.94-1.78 6.49 0.28 1.8 2.5 1.12 5.2-0.73 6.89l-7.05 7.01 7.23 6.58c2.68 2.34 2.16 7.76-3.31 8.38z" fill="url(#paint3_linear_2149_5282)"/>
  <defs>
    <linearGradient id="paint0_linear_2149_5282" x1="101.6" x2="155.4" y1="96.1" y2="187.8" gradientUnits="userSpaceOnUse">
      <stop stop-color="#5A2FF5" offset="0"/>
      <stop stop-color="#7432F5" offset="1"/>
    </linearGradient>
    <linearGradient id="paint1_linear_2149_5282" x1="78.49" x2="131.6" y1="53.09" y2="147.3" gradientUnits="userSpaceOnUse">
      <stop stop-color="#6932F5" offset="0"/>
      <stop stop-color="#9932F5" offset="1"/>
    </linearGradient>
    <linearGradient id="paint2_linear_2149_5282" x1="168.2" x2="183.8" y1="47.35" y2="76.85" gradientUnits="userSpaceOnUse">
      <stop stop-color="#6932F5" offset="0"/>
      <stop stop-color="#9132F5" offset="1"/>
    </linearGradient>
    <linearGradient id="paint3_linear_2149_5282" x1="69.8" x2="86.66" y1="159.2" y2="188.5" gradientUnits="userSpaceOnUse">
      <stop stop-color="#9932F5" offset="0"/>
      <stop stop-color="#8432F5" offset="1"/>
    </linearGradient>
  </defs>
</svg>